<?xml version="1.0" standalone="no"?>
<!DOCTYPE svg PUBLIC "-//W3C//DTD SVG 20010904//EN"
 "http://www.w3.org/TR/2001/REC-SVG-20010904/DTD/svg10.dtd">
<svg version="1.0" xmlns="http://www.w3.org/2000/svg"
 width="460.000000pt" height="460.000000pt" viewBox="0 0 460.000000 460.000000"
 preserveAspectRatio="xMidYMid meet">
<metadata>
Created by potrace 1.14, written by Peter Selinger 2001-2017
</metadata>
<g transform="translate(0.000000,460.000000) scale(0.100000,-0.100000)"
fill="#000000" stroke="none">
<path d="M2458 4105 c-2 -2 -38 -5 -81 -6 -70 -2 -134 -9 -222 -25 -16 -3 -41
-7 -55 -9 -30 -5 -65 -13 -65 -15 0 -1 -7 -3 -16 -5 -84 -16 -212 -62 -336
-120 -52 -25 -97 -45 -100 -45 -2 0 -9 -4 -16 -10 -7 -5 -59 -41 -117 -79 -58
-38 -117 -81 -132 -96 -16 -14 -28 -23 -28 -20 0 4 -23 -16 -50 -44 -28 -28
-55 -51 -60 -51 -6 0 -10 -4 -10 -8 0 -4 -21 -31 -47 -59 -63 -67 -83 -91
-113 -133 -13 -19 -27 -37 -30 -40 -7 -7 -72 -106 -108 -166 -33 -56 -82 -159
-82 -173 0 -5 -3 -11 -7 -13 -18 -7 -75 -189 -109 -342 -38 -178 -40 -203 -34
-565 1 -83 52 -301 102 -441 29 -79 143 -319 158 -330 3 -3 16 -21 28 -40 11
-20 30 -47 42 -59 11 -13 20 -27 20 -30 0 -3 10 -18 23 -33 12 -14 30 -36 40
-47 9 -12 17 -26 17 -32 0 -5 4 -7 10 -4 6 3 10 2 10 -3 0 -10 123 -137 181
-186 57 -49 174 -134 231 -167 106 -63 235 -128 242 -122 3 3 6 2 6 -3 0 -5
21 -16 48 -23 26 -8 53 -18 60 -24 6 -5 12 -7 12 -3 0 3 17 -1 38 -9 32 -13
122 -38 173 -50 19 -4 79 -14 124 -21 114 -17 295 -24 312 -12 6 5 14 5 17 0
3 -5 18 -8 33 -5 16 2 48 6 73 8 190 19 389 69 535 135 22 10 44 18 48 19 11
0 165 84 212 115 22 14 48 32 59 39 120 78 289 232 376 342 17 22 35 42 38 45
11 8 29 40 55 95 33 68 40 92 43 145 1 25 3 47 4 50 3 6 0 58 -5 90 -20 139
-108 275 -224 349 -73 47 -171 78 -255 80 -75 2 -206 -24 -206 -41 0 -5 -4 -7
-9 -4 -14 9 -112 -56 -163 -108 -27 -26 -48 -50 -48 -53 0 -6 -56 -61 -119
-115 -17 -16 -35 -28 -41 -28 -5 0 -10 -4 -10 -10 0 -5 -6 -10 -14 -10 -8 0
-16 -4 -18 -9 -7 -19 -163 -82 -250 -102 -231 -51 -439 -13 -638 117 -61 40
-140 110 -186 165 -30 37 -94 143 -94 157 0 6 -5 12 -12 12 -6 0 -8 3 -5 7 4
3 3 11 -1 17 -10 13 -47 143 -59 206 -20 103 2 309 44 410 3 8 7 21 9 29 1 8
7 17 12 20 5 3 12 18 16 34 3 15 11 27 16 27 6 0 10 5 10 11 0 30 142 194 222
255 37 29 161 93 169 88 5 -3 9 0 9 6 0 6 4 9 9 5 5 -3 12 -1 16 5 3 5 15 10
26 10 10 0 19 5 19 11 0 6 7 8 16 5 9 -3 21 -3 27 1 50 31 313 33 392 3 14 -5
25 -6 25 -3 0 4 5 2 12 -5 7 -7 24 -12 39 -12 15 0 30 -4 33 -8 14 -24 228
-18 276 8 9 5 20 6 24 3 3 -3 6 -1 6 5 0 7 3 11 8 10 24 -5 108 52 180 122 31
30 84 123 104 183 21 65 30 234 13 273 -4 10 -10 27 -12 37 -8 41 -59 130
-104 180 -73 82 -195 152 -284 163 -16 2 -32 9 -33 14 -2 6 -7 8 -11 6 -4 -3
-27 0 -52 5 -67 16 -81 19 -118 25 -18 3 -43 8 -55 10 -11 3 -66 7 -121 10
-55 3 -108 7 -117 8 -9 2 -18 2 -20 1z"/>
<path d="M3038 2935 c-2 -2 -22 -5 -45 -9 -43 -5 -135 -44 -141 -58 -2 -4 -9
-8 -16 -8 -17 0 -98 -79 -121 -118 -18 -30 -45 -44 -45 -22 0 6 -8 10 -18 10
-10 0 -22 3 -26 7 -32 33 -213 52 -302 32 -32 -7 -61 -13 -64 -14 -3 0 -11 -4
-17 -8 -7 -5 -17 -5 -23 -2 -5 3 -10 2 -10 -3 0 -5 -13 -15 -30 -22 -16 -7
-30 -16 -30 -21 0 -5 -6 -9 -14 -9 -22 0 -117 -98 -153 -157 -104 -169 -102
-383 5 -549 21 -32 53 -72 72 -89 18 -16 40 -37 49 -45 24 -22 160 -87 201
-95 52 -11 180 -13 186 -3 3 4 10 6 15 2 13 -8 72 12 149 49 77 39 184 142
220 213 13 27 23 52 22 57 -3 10 5 9 66 -7 58 -16 187 -15 237 2 96 30 190
102 247 187 25 36 73 155 63 155 -2 0 0 13 5 29 4 15 4 34 0 42 -5 7 -5 20 0
30 5 9 6 19 3 23 -3 3 -8 18 -9 33 -8 78 -60 178 -126 244 -22 22 -43 39 -47
39 -4 0 -17 9 -29 20 -12 12 -22 18 -22 14 0 -3 -11 1 -23 9 -33 21 -91 36
-164 40 -34 3 -64 3 -65 2z"/>
</g>
</svg>
